<svg xmlns="http://www.w3.org/2000/svg"  viewBox="0 0 24 24" width="288px" height="288px" baseProfile="basic"><path fill="#306263" d="M10.854,2.064c-4.608,0.512-8.337,4.285-8.802,8.899c-0.49,4.864,2.512,9.095,6.796,10.518	c0.319,0.106,0.647-0.148,0.647-0.483l0-1.06c0-0.293-0.142-0.437-0.416-0.437c-0.224,0-0.844,0-0.844,0c-0.68,0-1.29-0.3-1.58-0.84	c-0.33-0.61-0.39-1.54-1.2-2.11c-0.24-0.19-0.06-0.4,0.22-0.38c0.51,0.15,0.94,0.5,1.34,1.02c0.4,0.53,0.58,0.64,1.33,0.64	c0.277,0,0.66-0.005,1.053-0.054c0.264-0.033,0.375-0.114,0.519-0.409c0.144-0.292,0.216-0.413,0.326-0.572	c0.226-0.327,0.253-0.744-0.342-0.884c-2.569-0.607-3.747-2.026-3.747-4.061c0-0.815,0.289-1.608,0.796-2.303	C7.133,9.3,7.215,9.001,7.15,8.702C6.999,8.008,6.897,7.075,7.147,6.489c0.084-0.196,0.29-0.325,0.503-0.307	C8.549,6.26,9.208,6.681,9.601,7.02c0.258,0.222,0.6,0.298,0.93,0.213C11.124,7.081,11.753,7,12.406,7	c0.66,0,1.292,0.081,1.885,0.233c0.33,0.085,0.672,0.009,0.93-0.213c0.393-0.339,1.054-0.761,1.955-0.837	c0.203-0.017,0.405,0.099,0.49,0.283c0.269,0.589,0.162,1.541,0.007,2.241c-0.066,0.296,0.014,0.593,0.191,0.84	c0.503,0.7,0.793,1.488,0.793,2.304c0,2.022-1.242,3.652-3.917,4.196c-0.372,0.076-0.487,0.387-0.247,0.681	c0.51,0.622,0.834,1.496,0.834,2.203l0,1.755c0,0.353,0.362,0.608,0.685,0.466C19.535,19.605,22,16.094,22,12	C22,6.1,16.89,1.393,10.854,2.064z"/></svg>